<svg width="1058" height="785" viewBox="0 0 1058 785" fill="none" xmlns="http://www.w3.org/2000/svg">
<g id="undraw_Ride_a_bicycle_2yok 1" clip-path="url(#clip0)">
<path id="Vector" opacity="0.1" d="M170.802 131.432C165.322 138.082 163.212 147.432 160.852 156.222C141.852 227.062 95.0321 284.042 41.7121 324.742C19.1321 341.982 -8.35794 365.102 -3.41794 396.012C-0.757935 412.612 10.9121 424.832 19.5821 438.352C37.7721 466.662 43.6721 505.142 35.0021 539.032C25.1421 577.592 -2.41794 613.572 6.11206 652.562C11.3721 676.562 29.2321 693.642 46.4021 708.322C73.1887 731.209 100.829 752.649 129.322 772.642C148.422 786.042 168.742 799.082 191.002 800.782C210.602 802.282 229.802 794.832 248.412 787.482C264.672 781.052 281.342 774.362 294.472 761.482C303.042 753.072 309.872 742.222 319.392 735.342C341.752 719.182 370.472 729.422 396.112 736.342C456.612 752.582 521.362 746.652 578.932 719.602C667.242 678.102 734.552 590.952 820.932 544.192C858.072 524.082 898.472 511.602 932.862 485.702C952.237 470.956 968.887 452.938 982.062 432.462C1008.06 392.352 1022.12 341.212 1018.06 291.152C1014 241.092 991.252 192.852 955.522 164.592C917.272 134.342 868.962 128.692 825.442 110.532C780.502 91.7722 740.522 59.5322 696.012 39.4022C659.996 23.1588 620.8 15.185 581.3 16.0658C541.8 16.9466 502.998 26.6596 467.742 44.4922C419.302 68.9922 370.202 126.152 316.252 130.492C277.812 133.492 200.822 95.0122 170.802 131.432Z" fill="#6C63FF"/>
<g id="left-wheel">
<path id="Vector_2" d="M207.725 746.778L201.455 648.838L201.325 648.628L195.005 650.828L165.925 735.678L119.675 702.888L193.345 649.478L193.415 649.268L193.835 649.118L198.585 645.668L121.345 602.358L102.425 623.158L105.425 642.658L194.245 644.278V646.278L103.765 644.658L100.345 622.518L126.245 594.058L164.995 548.858L165.685 550.728L173.885 541.728L204.345 547.188V545.978L206.345 546.038V547.548L251.705 555.668L209.415 640.278L203.245 644.748V645.248V645.808L301.045 611.728L289.435 702.938L206.435 650.068L203.515 648.428L252.455 727.308L207.725 746.778ZM203.725 652.438L209.575 743.818L249.625 726.438L203.725 652.438ZM123.145 702.868L164.935 732.498L192.275 652.758L123.145 702.868ZM205.465 647.208L207.555 648.378L287.905 699.578L298.705 614.708L205.465 647.208ZM198.365 640.008L200.875 644.058L201.315 643.738L204.315 549.208L174.575 543.888L166.415 552.888L198.365 640.008ZM122.945 600.948L197.785 642.948L196.485 640.818L164.905 554.548L127.715 595.418L122.945 600.948ZM206.345 549.558L203.345 642.278L207.865 638.998L248.775 557.178L206.345 549.558Z" fill="#535461"/>
<path id="Vector_3" d="M317.415 619.738C313.405 601.919 305.285 585.283 293.705 571.158C289.406 565.909 284.666 561.038 279.535 556.598C259.809 539.567 234.986 529.568 208.962 528.17C182.938 526.771 157.187 534.053 135.749 548.873C114.311 563.693 98.4012 585.211 90.5153 610.05C82.6294 634.89 83.2143 661.645 92.1782 686.116C101.142 710.587 117.978 731.39 140.042 745.258C162.107 759.127 188.152 765.277 214.09 762.743C240.028 760.208 264.39 749.134 283.353 731.257C302.317 713.379 314.807 689.712 318.865 663.968C319.809 657.907 320.284 651.783 320.285 645.648C320.292 636.932 319.329 628.242 317.415 619.738ZM202.225 734.088C183.993 734.069 166.209 728.435 151.292 717.953C136.374 707.47 125.047 692.648 118.851 675.501C112.655 658.354 111.89 639.715 116.66 622.118C121.43 604.521 131.505 588.82 145.513 577.15C159.521 565.48 176.783 558.408 194.953 556.895C213.122 555.381 231.316 559.501 247.062 568.693C262.807 577.884 275.34 591.703 282.956 608.268C290.571 624.834 292.9 643.343 289.625 661.278C285.875 681.722 275.076 700.203 259.107 713.506C243.137 726.809 223.01 734.093 202.225 734.088V734.088Z" fill="#535461"/>
<path id="Vector_4" d="M202.225 658.058C209.3 658.058 215.035 652.323 215.035 645.248C215.035 638.174 209.3 632.438 202.225 632.438C195.15 632.438 189.415 638.174 189.415 645.248C189.415 652.323 195.15 658.058 202.225 658.058Z" fill="#535461"/>
</g>
<g id="right-wheel">
<path id="Vector_5" d="M630.805 747L624.286 649.114L624.151 648.904L617.57 651.104L587.278 735.902L539.118 703.106L615.852 649.704L615.925 649.494L616.362 649.344L621.308 645.895L540.878 602.591L521.166 623.388L524.29 642.885L616.758 644.465V646.465L522.54 644.845L519 622.738L545.959 594.292L586.279 549.129L586.997 550.999L595.536 542L627.337 547.469V546.259L629.42 546.319V547.829L676.653 555.948L632.575 640.586L626.15 645.055V645.555V646.115L728 612.04L715.91 703.236L629.482 650.374L626.442 648.734L677.403 727.613L630.805 747ZM626.64 652.674L632.731 744.04L674.435 726.663L626.64 652.674ZM542.742 703.106L586.258 732.732L614.727 653.004L542.742 703.106ZM628.462 647.455L630.638 648.624L714.307 699.817L725.553 614.959L628.462 647.455ZM621.069 640.256L623.682 644.305L624.14 643.985L627.264 549.469L596.296 544.13L587.799 553.128L621.069 640.256ZM542.565 601.211L620.496 643.205L619.142 641.076L586.258 554.818L547.521 595.692L542.565 601.211ZM629.378 549.829L626.254 642.505L630.961 639.226L673.561 557.418L629.378 549.829Z" fill="#535461"/>
<path id="Vector_6" d="M629.059 526C618.058 525.988 607.106 527.412 596.502 530.233C591.032 531.685 585.677 533.51 580.477 535.694C552.77 547.261 530.502 568.315 517.981 594.781C505.46 621.247 503.576 651.246 512.693 678.973C521.809 706.7 541.279 730.185 567.336 744.886C593.392 759.586 624.184 764.457 653.754 758.556C683.324 752.654 709.571 736.401 727.417 712.938C745.263 689.476 753.44 660.473 750.366 631.54C747.292 602.607 733.186 575.8 710.777 556.305C688.367 536.81 659.247 526.012 629.049 526H629.059ZM628.644 731.74C607.623 731.732 587.236 724.798 570.871 712.09C554.505 699.383 543.146 681.665 538.679 661.881C534.211 642.097 536.905 621.437 546.313 603.331C555.721 585.225 571.277 570.764 590.396 562.348C595.26 560.204 600.31 558.477 605.488 557.187C618.147 554.022 631.36 553.491 644.248 555.627C657.136 557.763 669.404 562.519 680.236 569.577C691.067 576.636 700.214 585.835 707.067 596.562C713.919 607.29 718.321 619.301 719.98 631.794C721.638 644.288 720.514 656.979 716.683 669.022C712.853 681.065 706.403 692.184 697.763 701.639C689.123 711.095 678.492 718.669 666.576 723.859C654.66 729.049 641.733 731.736 628.655 731.74H628.644Z" fill="#535461"/>
<path id="Vector_7" d="M625.93 658.67C633.005 658.67 638.74 652.935 638.74 645.86C638.74 638.785 633.005 633.05 625.93 633.05C618.855 633.05 613.12 638.785 613.12 645.86C613.12 652.935 618.855 658.67 625.93 658.67Z" fill="#535461"/>
</g>
<g id="man-bike">
<path id="Vector_8" d="M339.47 585.194L296.763 543.05L283.417 556.574L326.124 598.718L339.47 585.194Z" fill="#6C63FF"/>
<path id="Vector_9" d="M306.95 522.881C306.95 522.881 331.74 509.801 341.32 501.381C347.087 496.335 353.288 491.808 359.85 487.851L390.95 468.921L455.95 463.921L458.95 474.921C458.95 474.921 463.95 490.921 413.95 504.921C363.95 518.921 338.95 540.921 338.95 540.921C338.95 540.921 306.95 551.881 306.95 522.881Z" fill="#DB8B8B"/>
<path id="Vector_10" opacity="0.1" d="M341.6 538.751C339.83 540.101 338.95 540.881 338.95 540.881C338.95 540.881 306.95 551.881 306.95 522.881C306.95 522.881 308.5 522.061 310.95 520.691C313.425 524.721 316.893 528.05 321.021 530.359C325.149 532.669 329.8 533.881 334.53 533.881H337.92L341.6 538.751Z" fill="black"/>
<path id="Vector_11" opacity="0.05" d="M458.01 480.441C455.23 486.331 445.64 496.011 413.95 504.881C373.34 516.251 349.22 532.881 341.6 538.751C339.83 540.101 338.95 540.881 338.95 540.881C338.95 540.881 306.95 551.881 306.95 522.881C306.95 522.881 308.5 522.061 310.95 520.691C318.38 516.621 334.11 507.691 341.29 501.341C347.056 496.294 353.257 491.766 359.82 487.811L390.92 468.881L402.5 467.991L455.92 463.881L458.92 474.881C458.92 474.881 459.62 477.031 458.01 480.441Z" fill="black"/>
<path id="Vector_12" d="M307.45 516.381L280.95 533.881L358.55 598.881C358.55 598.881 369.95 591.881 363.95 583.881C363.95 583.881 343.95 566.881 342.95 542.881L336.95 534.881H333.56C327.828 534.882 322.237 533.102 317.559 529.788C312.882 526.474 309.35 521.789 307.45 516.381V516.381Z" fill="#ABB1D1"/>
<path id="Vector_13" opacity="0.1" d="M458.01 480.441C442.01 472.711 402.95 471.881 402.95 471.881L402.53 467.991L455.95 463.881L458.95 474.881C458.95 474.881 459.62 477.031 458.01 480.441Z" fill="black"/>
<path id="Vector_14" d="M402.95 469.881C402.95 469.881 449.95 470.881 461.95 480.881L455.95 359.881H390.95L402.95 469.881Z" fill="#ABB1D1"/>
<path id="Vector_15" opacity="0.05" d="M402.95 469.381C402.95 469.381 449.95 470.381 461.95 480.381L455.95 359.381H390.95L402.95 469.381Z" fill="black"/>
<path id="Vector_16" d="M440.71 395.841C440.71 395.841 558.36 391.841 560.76 407.051C563.16 422.261 443.11 415.851 443.11 415.851C443.11 415.851 433.51 406.241 440.71 395.841Z" fill="#535461"/>
<path id="Vector_17" opacity="0.05" d="M440.71 395.841C440.71 395.841 558.36 391.841 560.76 407.051C563.16 422.261 443.11 415.851 443.11 415.851C443.11 415.851 433.51 406.241 440.71 395.841Z" fill="black"/>
<path id="Vector_18" d="M345.47 456.671H324.66V637.551H345.47V456.671Z" fill="#6C63FF"/>
<path id="Vector_19" opacity="0.1" d="M345.47 456.661V470.591C338.55 471.491 331.47 472.061 324.66 472.281V456.661H345.47Z" fill="black"/>
<path id="Vector_20" d="M343.91 441.671C340.99 441.445 338.086 441.054 335.21 440.501C323.93 438.341 295.49 433.811 287.84 441.501C278.24 451.101 281.44 467.911 307.05 470.311C332.66 472.711 376.68 466.311 385.49 456.701C385.49 456.661 369.56 443.641 343.91 441.671Z" fill="#535461"/>
<path id="Vector_21" d="M339.87 506.291L558.37 438.261L565.57 455.071L341.47 531.901L339.87 506.291Z" fill="#6C63FF"/>
<path id="Vector_22" d="M404.7 613.541L562.37 458.271L571.17 471.071L420.7 627.941L404.7 613.541Z" fill="#6C63FF"/>
<path id="Vector_23" opacity="0.1" d="M606.05 560.741C601.054 562.033 596.182 563.763 591.49 565.911L581.93 539.201C586.947 537.014 592.114 535.186 597.39 533.731L606.05 560.741Z" fill="black"/>
<path id="Vector_24" d="M632.8 639.151L621.6 645.551L543.46 427.221L539.96 417.451L558.37 407.041L562.98 421.421L632.8 639.151Z" fill="#6C63FF"/>
<path id="Vector_25" opacity="0.1" d="M562.98 421.421L543.46 427.221L539.96 417.451L558.37 407.041L562.98 421.421Z" fill="black"/>
<path id="Vector_26" d="M443.91 438.261L553.56 400.641C553.56 400.641 572.77 403.041 565.56 419.051L455.12 451.861C455.12 451.861 438.32 453.461 443.91 438.261Z" fill="#535461"/>
<path id="Vector_27" opacity="0.1" d="M320.26 646.751C320.259 652.885 319.784 659.01 318.84 665.071C309.24 664.381 299.32 663.381 289.6 662.381C291.759 650.49 291.491 638.285 288.81 626.501C298.28 624.501 307.95 622.591 317.39 620.861C319.303 629.358 320.265 638.041 320.26 646.751V646.751Z" fill="black"/>
<path id="Vector_28" opacity="0.1" d="M345.47 616.271V637.541H324.66V619.541C331.86 618.291 338.86 617.181 345.47 616.271Z" fill="black"/>
<path id="Vector_29" d="M211.01 646.381C211.01 646.381 379.09 602.381 392.69 619.171C406.29 635.961 420.7 658.381 378.32 666.381C335.94 674.381 207.84 652.771 207.84 652.771L211.01 646.381Z" fill="#6C63FF"/>
<path id="Vector_30" opacity="0.1" d="M293.68 572.261L272.32 591.811C268.537 586.955 264.261 582.504 259.56 578.531L279.5 557.701C284.634 562.14 289.378 567.011 293.68 572.261V572.261Z" fill="black"/>
<path id="Vector_31" d="M205.41 637.551L331.06 506.291L335.07 536.701L211.81 649.551L205.41 637.551Z" fill="#6C63FF"/>
<path id="Vector_32" opacity="0.1" d="M203.81 659.161C210.885 659.161 216.62 653.426 216.62 646.351C216.62 639.276 210.885 633.541 203.81 633.541C196.735 633.541 191 639.276 191 646.351C191 653.426 196.735 659.161 203.81 659.161Z" fill="black"/>
<path id="Vector_33" opacity="0.1" d="M627.6 657.961C634.675 657.961 640.41 652.226 640.41 645.151C640.41 638.076 634.675 632.341 627.6 632.341C620.525 632.341 614.79 638.076 614.79 645.151C614.79 652.226 620.525 657.961 627.6 657.961Z" fill="black"/>
<path id="Vector_34" opacity="0.1" d="M400.69 659.161C414.834 659.161 426.3 647.695 426.3 633.551C426.3 619.407 414.834 607.941 400.69 607.941C386.546 607.941 375.08 619.407 375.08 633.551C375.08 647.695 386.546 659.161 400.69 659.161Z" fill="black"/>
<path id="Vector_35" d="M402.3 659.161C416.444 659.161 427.91 647.695 427.91 633.551C427.91 619.407 416.444 607.941 402.3 607.941C388.156 607.941 376.69 619.407 376.69 633.551C376.69 647.695 388.156 659.161 402.3 659.161Z" fill="#535461"/>
<path id="Vector_36" d="M395.462 631.627L395.454 631.633C392.447 633.882 391.832 638.143 394.081 641.151L414.407 668.331C416.656 671.339 420.918 671.954 423.925 669.705L423.933 669.699C426.941 667.449 427.555 663.188 425.306 660.181L404.98 633C402.731 629.993 398.47 629.378 395.462 631.627Z" fill="#6C63FF"/>
<path id="Vector_37" d="M517.95 277.881L515.57 307.991C515.296 311.805 515.346 315.635 515.72 319.441C516.03 322.811 515.72 328.711 512.42 337.711C508.183 349.208 505.993 361.358 505.95 373.611V407.881L482.95 403.881C482.95 403.881 483.95 355.881 479.95 347.881C475.95 339.881 482.95 268.881 482.95 268.881L517.95 277.881Z" fill="#DB8B8B"/>
<path id="Vector_38" opacity="0.05" d="M516.77 292.801L515.57 307.991C515.3 311.802 515.353 315.629 515.73 319.431C516.04 322.801 515.73 328.701 512.43 337.711C508.193 349.208 506.003 361.358 505.96 373.611V407.881L482.96 403.881C482.96 403.881 483.96 355.881 479.96 347.881C477.13 342.211 479.81 304.941 481.62 283.671C482.37 274.921 482.96 268.881 482.96 268.881L517.96 277.881L516.77 292.801Z" fill="black"/>
<path id="Vector_39" d="M403.97 507.881L395.32 557.081C394.229 563.65 392.556 570.109 390.32 576.381C385.25 590.241 388.49 609.671 390.95 620.271C392.04 624.951 392.95 627.911 392.95 627.911L366.95 641.911L358.95 635.911V631.911L357.95 542.911C351.95 528.911 353.95 507.911 357.95 499.911C359.087 497.282 359.887 494.52 360.33 491.691C362.33 480.971 362.95 465.911 362.95 465.911C362.95 465.911 378.95 438.911 397.95 456.911C404.95 463.541 407.61 472.211 408.17 480.511C409.15 494.721 403.97 507.881 403.97 507.881Z" fill="#DB8B8B"/>
<path id="Vector_40" opacity="0.1" d="M408.17 480.481C394.3 488.721 370.17 491.051 360.33 491.661C362.33 480.941 362.95 465.881 362.95 465.881C362.95 465.881 378.95 438.881 397.95 456.881C404.95 463.511 407.61 472.181 408.17 480.481Z" fill="black"/>
<path id="Vector_41" d="M441.95 455.881C431.316 461.544 421.267 468.243 411.95 475.881C395.95 488.881 355.95 489.881 355.95 489.881V474.881C356.95 456.881 339.95 436.881 316.95 380.881C302.26 345.121 306.33 324.881 311.19 314.881C313.95 309.231 316.95 306.881 316.95 306.881L441.95 330.881L446.42 344.281L455.95 372.881C455.95 372.881 420.95 374.881 414.95 377.881C408.95 380.881 412.95 407.881 412.95 407.881C406.95 435.881 441.95 455.881 441.95 455.881Z" fill="#ABB1D1"/>
<path id="Vector_42" opacity="0.1" d="M517.95 277.881L516.77 292.801C499.37 297.801 486.95 281.881 486.95 281.881C485.135 282.367 483.352 282.965 481.61 283.671C482.36 274.921 482.95 268.881 482.95 268.881L517.95 277.881Z" fill="black"/>
<path id="Vector_43" opacity="0.1" d="M446.42 344.281C445.95 348.951 445.95 351.881 445.95 351.881C445.95 351.881 422.95 370.881 383.95 341.881C344.95 312.881 309.95 320.881 309.95 320.881C309.95 320.881 310.36 318.561 311.19 314.881C313.95 309.231 316.95 306.881 316.95 306.881L441.95 330.881L446.42 344.281Z" fill="black"/>
<path id="Vector_44" d="M531.43 238.831C528.82 259.181 527.95 284.831 527.95 284.831C504.95 302.831 486.95 279.831 486.95 279.831C465.23 285.661 455.02 304.671 450.21 321.261C447.634 330.235 446.202 339.498 445.95 348.831C445.95 348.831 439.87 353.831 428.67 354.831C418.08 355.721 402.9 352.961 383.95 338.831C344.95 309.831 309.95 317.831 309.95 317.831C309.95 317.831 316.95 277.831 332.95 265.831C348.95 253.831 360.95 238.831 380.95 192.831C400.95 146.831 441.95 157.831 441.95 157.831C441.95 157.831 443.95 148.831 480.95 157.831C489.962 160.193 498.304 164.612 505.32 170.741C525.11 187.381 534.71 213.191 531.43 238.831Z" fill="white"/>
<path id="Vector_45" d="M494.32 180.381C494.27 181.711 494.16 183.191 493.98 184.841C491.98 202.841 489.98 200.841 467.98 204.841C454.3 207.331 447.19 195.901 443.77 186.901C442.532 183.641 441.598 180.273 440.98 176.841L488.98 168.841C488.98 168.841 494.73 167.231 494.32 180.381Z" fill="#DB8B8B"/>
<path id="Vector_46" opacity="0.05" d="M450.21 321.311C447.634 330.285 446.202 339.548 445.95 348.881C445.95 348.881 439.87 353.881 428.67 354.881C428.354 354.244 428.113 353.573 427.95 352.881C425.95 343.881 410.95 327.881 410.95 327.881C400.95 318.881 398.95 302.881 398.95 302.881L382.45 254.381L376.95 249.881C376.95 249.881 399.95 231.881 419.95 246.881C439.95 261.881 433.95 293.881 433.95 293.881L437.95 304.881C442.1 308.381 446.32 314.551 450.21 321.311Z" fill="black"/>
<path id="Vector_47" d="M379.95 248.881L401.95 301.881C401.95 301.881 403.95 317.881 413.95 326.881C413.95 326.881 428.95 342.881 430.95 351.881C432.95 360.881 460.95 384.881 460.95 384.881C460.95 384.881 486.95 408.881 488.95 417.881C488.95 417.881 512.95 424.881 509.95 438.881C509.95 438.881 527.95 420.881 509.95 403.881C491.95 386.881 467.95 351.881 467.95 351.881C467.95 351.881 453.95 314.881 440.95 303.881L436.95 292.881C436.95 292.881 442.95 260.881 422.95 245.881C402.95 230.881 379.95 248.881 379.95 248.881Z" fill="#DB8B8B"/>
<path id="Vector_48" opacity="0.1" d="M392.95 627.881L366.95 641.881L358.95 635.881V631.881C367.934 631.243 376.663 628.609 384.5 624.171C386.9 622.811 389.16 621.471 390.97 620.291C392.02 624.921 392.95 627.881 392.95 627.881Z" fill="black"/>
<path id="Vector_49" opacity="0.1" d="M422.95 206.881L436.95 261.881C436.95 261.881 393.95 268.881 384.95 261.881C375.95 254.881 358.95 252.881 358.95 252.881C358.95 252.881 376.95 200.881 386.95 194.881C396.95 188.881 422.95 206.881 422.95 206.881Z" fill="black"/>
<path id="Vector_50" d="M422.95 204.881L436.95 259.881C436.95 259.881 393.95 266.881 384.95 259.881C375.95 252.881 358.95 250.881 358.95 250.881C358.95 250.881 376.95 198.881 386.95 192.881C396.95 186.881 422.95 204.881 422.95 204.881Z" fill="white"/>
<path id="Vector_51" opacity="0.1" d="M494.32 179.381C491.519 183.247 487.957 186.499 483.853 188.938C479.748 191.376 475.188 192.949 470.453 193.56C465.718 194.171 460.909 193.806 456.32 192.489C451.731 191.172 447.46 188.93 443.77 185.901C442.532 182.641 441.598 179.273 440.98 175.841L488.98 167.841C488.98 167.841 494.73 166.231 494.32 179.381Z" fill="black"/>
<path id="Vector_52" d="M500.95 157.881C500.95 167.163 497.263 176.066 490.699 182.63C484.135 189.193 475.233 192.881 465.95 192.881C456.667 192.881 447.765 189.193 441.201 182.63C434.638 176.066 430.95 167.163 430.95 157.881C430.95 157.301 430.95 156.721 430.95 156.141C431.181 146.858 435.09 138.048 441.816 131.647C448.543 125.246 457.537 121.78 466.82 122.011C476.103 122.242 484.913 126.15 491.314 132.877C497.715 139.604 501.181 148.598 500.95 157.881V157.881Z" fill="#DB8B8B"/>
<path id="Vector_53" opacity="0.1" d="M500.95 157.881C500.953 161.107 500.509 164.317 499.63 167.421C496.925 168.01 494.103 167.752 491.55 166.681C487.81 165.211 484.6 162.681 481.01 160.861C470.9 155.741 458.87 156.751 447.67 158.441C442.11 159.281 435.8 160.061 431.43 156.521C431.28 156.402 431.136 156.275 431 156.141C431.231 146.858 435.14 138.048 441.866 131.647C448.593 125.246 457.587 121.78 466.87 122.011C476.153 122.242 484.963 126.15 491.364 132.877C497.765 139.604 501.231 148.598 501 157.881H500.95Z" fill="black"/>
<path id="Vector_54" opacity="0.05" d="M337.45 265.381C337.45 265.381 363.45 272.381 371.45 290.381C379.45 308.381 401.09 311.671 401.09 311.671" fill="black"/>
<path id="Vector_55" d="M435.45 661.381H375.45V680.381H435.45V661.381Z" fill="#6C63FF"/>
<path id="Vector_56" d="M384.46 626.121C389.83 623.121 394.54 620.121 394.95 618.881C394.95 618.881 408.5 633.181 420.57 637.621C424.629 639.12 428.514 641.051 432.16 643.381C436.94 646.381 443.76 649.911 449.95 649.911C449.95 649.911 463.95 661.911 436.95 663.911C409.95 665.911 346.95 658.911 346.95 658.911L350.95 633.911C362.637 634.596 374.274 631.891 384.46 626.121Z" fill="#ABB1D1"/>
</g>
<g id="Hat">
<path id="Vector_57" d="M408.624 114.927C410.754 121.607 420.984 121.817 426.234 126.737C428.964 129.297 430.234 133.077 433.234 135.357C437.404 138.537 443.424 137.837 448.734 137.077C459.424 135.557 470.904 134.647 480.544 139.257C483.964 140.887 487.034 143.167 490.604 144.497C494.174 145.827 498.604 145.987 501.504 143.627C503.824 141.737 504.674 138.627 506.774 136.547C508.404 134.907 510.674 133.987 512.534 132.547C516.614 129.467 518.374 124.447 519.534 119.647C521.934 109.767 522.624 99.1167 518.534 89.7467C514.444 80.3767 504.604 72.7467 493.864 73.2367C490.574 73.3867 487.364 74.2367 484.084 74.5967C475.534 75.4667 467.084 72.5967 458.504 72.1067C456.015 71.8039 453.49 72.1483 451.174 73.1067C449.427 74.0775 447.92 75.4273 446.764 77.0567C442.836 82.2021 440.146 88.1836 438.904 94.5367C437.904 99.3267 437.854 103.667 431.984 104.407C425.314 105.287 404.114 100.797 408.624 114.927Z" fill="#472727"/>
</g>
</g>
<defs>
<clipPath id="clip0">
<rect width="1057.7" height="784.98" fill="white"/>
</clipPath>
</defs>
</svg>
