<svg width="2089" height="785" viewBox="0 0 2089 785" fill="none" xmlns="http://www.w3.org/2000/svg">
<g id="undraw_Ride_a_bicycle_2yok 1">
<g id="back">
<path id="Vector" opacity="0.1" d="M233.802 115.432C228.322 122.082 226.212 131.432 223.852 140.222C204.852 211.062 158.032 268.042 104.712 308.742C82.1321 325.982 54.6421 349.102 59.5821 380.012C62.2421 396.612 73.9121 408.832 82.5821 422.352C100.772 450.662 106.672 489.142 98.0021 523.032C88.1421 561.592 60.5821 597.572 69.1121 636.562C74.3721 660.562 92.2321 677.642 109.402 692.322C136.189 715.209 163.829 736.649 192.322 756.642C211.422 770.042 231.742 783.082 254.002 784.782C273.602 786.282 292.802 778.832 311.412 771.482C327.672 765.052 344.342 758.362 357.472 745.482C366.042 737.072 372.872 726.222 382.392 719.342C404.752 703.182 433.472 713.422 459.112 720.342C519.612 736.582 584.362 730.652 641.932 703.602C730.242 662.102 797.552 574.952 883.932 528.192C921.072 508.082 961.472 495.602 995.862 469.702C1015.24 454.956 1031.89 436.938 1045.06 416.462C1071.06 376.352 1085.12 325.212 1081.06 275.152C1077 225.092 1054.25 176.852 1018.52 148.592C980.272 118.342 931.962 112.692 888.442 94.5322C843.502 75.7721 803.522 43.5322 759.012 23.4022C722.996 7.15881 683.8 -0.814994 644.3 0.0657808C604.8 0.946555 565.998 10.6596 530.742 28.4922C482.302 52.9922 433.202 110.152 379.252 114.492C340.812 117.492 263.822 79.0122 233.802 115.432Z" fill="#6C63FF"/>
</g>
<g id="left-wheel">
<path id="Vector_2" d="M839.387 479.784L827.004 381.841L826.747 381.631L814.265 383.831L756.83 468.684L665.485 435.893L810.986 382.481L811.124 382.271L811.954 382.121L821.335 378.671L668.783 335.36L631.415 356.161L637.341 375.661L812.764 377.281V379.281L634.062 377.661L627.307 355.521L678.461 327.06L754.994 281.859L756.357 283.729L772.552 274.729L832.712 280.189V278.979L836.662 279.039V280.549L926.249 288.669L842.725 373.281L830.539 377.751V378.251V378.811L1023.7 344.731L1000.77 435.943L836.839 383.071L831.072 381.431L927.731 460.313L839.387 479.784ZM831.487 385.442L843.041 476.824L922.141 459.443L831.487 385.442ZM672.338 435.873L754.875 465.504L808.873 385.762L672.338 435.873ZM834.924 380.211L839.051 381.381L997.746 432.583L1019.08 347.711L834.924 380.211ZM820.901 373.011L825.858 377.061L826.727 376.741L832.652 282.209L773.915 276.889L757.798 285.889L820.901 373.011ZM671.943 333.95L819.755 375.951L817.188 373.821L754.816 287.549L681.364 328.42L671.943 333.95ZM836.662 282.559L830.737 375.281L839.664 372.001L920.463 290.179L836.662 282.559Z" fill="#535461"/>
<path id="Vector_3" d="M1056.03 352.741C1048.11 334.921 1032.07 318.285 1009.2 304.16C1000.71 298.91 991.348 294.039 981.215 289.599C942.254 272.567 893.228 262.568 841.83 261.17C790.432 259.771 739.572 267.054 697.231 281.874C654.891 296.694 623.468 318.212 607.893 343.053C592.318 367.893 593.473 394.648 611.177 419.12C628.881 443.592 662.132 464.395 705.711 478.264C749.29 492.133 800.73 498.283 851.958 495.748C903.187 493.214 951.303 482.139 988.756 464.262C1026.21 446.384 1050.88 422.716 1058.89 396.972C1060.76 390.911 1061.7 384.786 1061.7 378.651C1061.71 369.935 1059.81 361.245 1056.03 352.741ZM828.524 467.094C792.515 467.074 757.391 461.44 727.929 450.958C698.466 440.475 676.095 425.652 663.857 408.505C651.619 391.357 650.108 372.717 659.53 355.12C668.951 337.522 688.848 321.821 716.515 310.151C744.182 298.481 778.276 291.409 814.161 289.895C850.046 288.382 885.981 292.502 917.079 301.694C948.177 310.886 972.929 324.704 987.97 341.27C1003.01 357.836 1007.61 376.346 1001.14 394.282C993.736 414.726 972.407 433.207 940.867 446.511C909.328 459.814 869.574 467.098 828.524 467.094V467.094Z" fill="#535461"/>
<path id="Vector_4" d="M828.524 391.062C842.497 391.062 853.825 385.326 853.825 378.251C853.825 371.176 842.497 365.441 828.524 365.441C814.551 365.441 803.224 371.176 803.224 378.251C803.224 385.326 814.551 391.062 828.524 391.062Z" fill="#535461"/>
</g>
<g id="man-bike">
<path id="Vector_5" d="M1322.23 535.208L1237.88 493.062L1211.52 506.587L1295.87 548.732L1322.23 535.208Z" fill="#6C63FF"/>
<path id="Vector_6" d="M1258 472.893C1258 472.893 1306.96 459.813 1325.88 451.392C1337.27 446.347 1349.52 441.819 1362.48 437.862L1423.91 418.931L1552.28 413.931L1558.21 424.932C1558.21 424.932 1568.08 440.932 1469.33 454.932C1370.58 468.933 1321.2 490.933 1321.2 490.933C1321.2 490.933 1258 501.894 1258 472.893Z" fill="#DB8B8B"/>
<path id="Vector_7" opacity="0.1" d="M1326.44 488.763C1322.94 490.113 1321.2 490.893 1321.2 490.893C1321.2 490.893 1258 501.894 1258 472.893C1258 472.893 1261.06 472.073 1265.9 470.703C1270.79 474.734 1277.64 478.063 1285.79 480.372C1293.95 482.681 1303.13 483.893 1312.47 483.893H1319.17L1326.44 488.763Z" fill="black"/>
<path id="Vector_8" opacity="0.05" d="M1556.35 430.452C1550.86 436.342 1531.92 446.022 1469.33 454.892C1389.12 466.263 1341.49 482.893 1326.44 488.763C1322.94 490.113 1321.2 490.893 1321.2 490.893C1321.2 490.893 1258 501.894 1258 472.893C1258 472.893 1261.06 472.073 1265.9 470.703C1280.58 466.633 1311.64 457.702 1325.82 451.352C1337.21 446.305 1349.46 441.777 1362.42 437.822L1423.85 418.891L1446.72 418.001L1552.22 413.891L1558.15 424.892C1558.15 424.892 1559.53 427.042 1556.35 430.452Z" fill="black"/>
<path id="Vector_9" d="M1258.99 466.393L1206.65 483.893L1359.91 548.895C1359.91 548.895 1382.43 541.895 1370.58 533.894C1370.58 533.894 1331.08 516.894 1329.1 492.893L1317.25 484.893H1310.56C1299.24 484.894 1288.19 483.114 1278.96 479.8C1269.72 476.486 1262.74 471.801 1258.99 466.393V466.393Z" fill="#ABB1D1"/>
<path id="Vector_10" opacity="0.1" d="M1556.35 430.452C1524.75 422.722 1447.61 421.892 1447.61 421.892L1446.78 418.001L1552.28 413.891L1558.21 424.892C1558.21 424.892 1559.53 427.042 1556.35 430.452Z" fill="black"/>
<path id="Vector_11" d="M1447.61 419.892C1447.61 419.892 1540.43 420.892 1564.13 430.892L1552.28 309.889H1423.91L1447.61 419.892Z" fill="#ABB1D1"/>
<path id="Vector_12" opacity="0.05" d="M1447.61 419.392C1447.61 419.392 1540.43 420.392 1564.13 430.392L1552.28 309.389H1423.91L1447.61 419.392Z" fill="black"/>
<path id="Vector_13" d="M1522.18 345.85C1522.18 345.85 1754.55 341.85 1759.29 357.06C1764.03 372.27 1526.92 365.86 1526.92 365.86C1526.92 365.86 1507.96 356.25 1522.18 345.85Z" fill="#535461"/>
<path id="Vector_14" opacity="0.05" d="M1522.18 345.85C1522.18 345.85 1754.55 341.85 1759.29 357.06C1764.03 372.27 1526.92 365.86 1526.92 365.86C1526.92 365.86 1507.96 356.25 1522.18 345.85Z" fill="black"/>
<path id="Vector_15" d="M1334.08 406.681H1292.98V587.566H1334.08V406.681Z" fill="#6C63FF"/>
<path id="Vector_16" opacity="0.1" d="M1334.08 406.671V420.602C1320.41 421.502 1306.43 422.072 1292.98 422.292V406.671H1334.08Z" fill="black"/>
<path id="Vector_17" d="M1331 391.681C1325.23 391.455 1319.5 391.064 1313.82 390.511C1291.54 388.351 1235.37 383.821 1220.26 391.511C1201.3 401.111 1207.62 417.921 1258.2 420.322C1308.78 422.722 1395.72 416.321 1413.12 406.711C1413.12 406.671 1381.66 393.651 1331 391.681Z" fill="#535461"/>
<path id="Vector_18" d="M1323.02 456.302L1754.57 388.271L1768.79 405.081L1326.18 481.913L1323.02 456.302Z" fill="#6C63FF"/>
<path id="Vector_19" d="M1451.06 563.555L1762.47 408.281L1779.85 421.082L1482.66 577.956L1451.06 563.555Z" fill="#6C63FF"/>
<path id="Vector_20" opacity="0.1" d="M1848.74 510.754C1838.87 512.046 1829.25 513.776 1819.98 515.924L1801.1 489.213C1811.01 487.026 1821.21 485.198 1831.63 483.743L1848.74 510.754Z" fill="black"/>
<path id="Vector_21" d="M1901.57 589.166L1879.45 595.566L1725.12 377.23L1718.21 367.46L1754.57 357.05L1763.67 371.43L1901.57 589.166Z" fill="#6C63FF"/>
<path id="Vector_22" opacity="0.1" d="M1763.67 371.43L1725.12 377.23L1718.21 367.46L1754.57 357.05L1763.67 371.43Z" fill="black"/>
<path id="Vector_23" d="M1528.5 388.271L1745.07 350.65C1745.07 350.65 1783.01 353.05 1768.77 369.06L1550.64 401.871C1550.64 401.871 1517.46 403.471 1528.5 388.271Z" fill="#535461"/>
<path id="Vector_24" opacity="0.1" d="M1284.29 596.766C1284.29 602.9 1283.35 609.025 1281.49 615.086C1262.52 614.396 1242.93 613.396 1223.73 612.396C1228 600.505 1227.47 588.3 1222.17 576.515C1240.88 574.515 1259.98 572.605 1278.62 570.875C1282.4 579.373 1284.3 588.056 1284.29 596.766V596.766Z" fill="black"/>
<path id="Vector_25" opacity="0.1" d="M1334.08 566.285V587.556H1292.98V569.555C1307.2 568.305 1321.03 567.195 1334.08 566.285Z" fill="black"/>
<path id="Vector_26" d="M1068.52 596.396C1068.52 596.396 1400.48 552.395 1427.34 569.185C1454.2 585.976 1482.66 608.396 1398.96 616.396C1315.26 624.397 1062.26 602.786 1062.26 602.786L1068.52 596.396Z" fill="#6C63FF"/>
<path id="Vector_27" opacity="0.1" d="M1231.79 522.274L1189.61 541.825C1182.14 536.969 1173.69 532.518 1164.4 528.544L1203.79 507.714C1213.93 512.153 1223.3 517.024 1231.79 522.274V522.274Z" fill="black"/>
<path id="Vector_28" d="M1057.46 587.566L1305.62 456.302L1313.54 486.713L1070.1 599.566L1057.46 587.566Z" fill="#6C63FF"/>
<path id="Vector_29" opacity="0.1" d="M1054.3 609.176C1068.27 609.176 1079.6 603.441 1079.6 596.366C1079.6 589.291 1068.27 583.556 1054.3 583.556C1040.32 583.556 1029 589.291 1029 596.366C1029 603.441 1040.32 609.176 1054.3 609.176Z" fill="black"/>
<path id="Vector_30" opacity="0.1" d="M1891.3 607.976C1905.27 607.976 1916.6 602.241 1916.6 595.166C1916.6 588.091 1905.27 582.356 1891.3 582.356C1877.33 582.356 1866 588.091 1866 595.166C1866 602.241 1877.33 607.976 1891.3 607.976Z" fill="black"/>
<path id="Vector_31" opacity="0.1" d="M1443.14 609.176C1471.08 609.176 1493.72 597.71 1493.72 583.566C1493.72 569.421 1471.08 557.955 1443.14 557.955C1415.21 557.955 1392.56 569.421 1392.56 583.566C1392.56 597.71 1415.21 609.176 1443.14 609.176Z" fill="black"/>
<path id="Vector_32" d="M1446.32 609.176C1474.26 609.176 1496.9 597.71 1496.9 583.566C1496.9 569.421 1474.26 557.955 1446.32 557.955C1418.39 557.955 1395.74 569.421 1395.74 583.566C1395.74 597.71 1418.39 609.176 1446.32 609.176Z" fill="#535461"/>
<path id="Vector_33" d="M1432.82 581.642L1432.8 581.648C1426.86 583.897 1425.65 588.158 1430.09 591.166L1470.23 618.347C1474.68 621.355 1483.09 621.97 1489.03 619.72L1489.05 619.714C1494.99 617.465 1496.2 613.204 1491.76 610.196L1451.62 583.015C1447.17 580.007 1438.76 579.393 1432.82 581.642Z" fill="#6C63FF"/>
<path id="Vector_34" d="M1674.74 227.887L1670.03 257.997C1669.49 261.812 1669.59 265.642 1670.33 269.448C1670.94 272.818 1670.33 278.718 1663.81 287.718C1655.45 299.215 1651.12 311.366 1651.03 323.619V357.89L1605.61 353.89C1605.61 353.89 1607.58 305.889 1599.68 297.888C1591.78 289.888 1605.61 218.886 1605.61 218.886L1674.74 227.887Z" fill="#DB8B8B"/>
<path id="Vector_35" opacity="0.05" d="M1672.4 242.807L1670.03 257.997C1669.5 261.808 1669.61 265.636 1670.35 269.438C1670.96 272.808 1670.35 278.708 1663.83 287.718C1655.46 299.215 1651.14 311.366 1651.05 323.619V357.89L1605.63 353.89C1605.63 353.89 1607.6 305.889 1599.7 297.888C1594.11 292.218 1599.41 254.947 1602.98 233.677C1604.46 224.927 1605.63 218.886 1605.63 218.886L1674.76 227.887L1672.4 242.807Z" fill="black"/>
<path id="Vector_36" d="M1449.62 457.892L1432.54 507.094C1430.38 513.663 1427.08 520.122 1422.66 526.394C1412.65 540.255 1419.05 559.685 1423.91 570.285C1426.06 574.966 1427.86 577.926 1427.86 577.926L1376.5 591.926L1360.7 585.926V581.926L1358.73 492.923C1346.88 478.923 1350.83 457.923 1358.73 449.922C1360.98 447.294 1362.55 444.532 1363.43 441.702C1367.38 430.982 1368.6 415.921 1368.6 415.921C1368.6 415.921 1400.2 388.921 1437.73 406.921C1451.56 413.551 1456.81 422.222 1457.92 430.522C1459.85 444.732 1449.62 457.892 1449.62 457.892Z" fill="#DB8B8B"/>
<path id="Vector_37" opacity="0.1" d="M1457.92 430.492C1430.52 438.732 1382.86 441.062 1363.43 441.672C1367.38 430.952 1368.6 415.891 1368.6 415.891C1368.6 415.891 1400.2 388.891 1437.73 406.891C1451.56 413.521 1456.81 422.192 1457.92 430.492Z" fill="black"/>
<path id="Vector_38" d="M1524.63 405.891C1503.63 411.554 1483.78 418.254 1465.38 425.892C1433.78 438.892 1354.78 439.892 1354.78 439.892V424.892C1356.75 406.891 1323.18 386.891 1277.75 330.889C1248.74 295.128 1256.78 274.888 1266.38 264.888C1271.83 259.237 1277.75 256.887 1277.75 256.887L1524.63 280.888L1533.46 294.288L1552.28 322.889C1552.28 322.889 1483.16 324.889 1471.31 327.889C1459.46 330.889 1467.36 357.89 1467.36 357.89C1455.51 385.891 1524.63 405.891 1524.63 405.891Z" fill="#ABB1D1"/>
<path id="Vector_39" opacity="0.1" d="M1674.74 227.887L1672.4 242.807C1638.04 247.807 1613.51 231.887 1613.51 231.887C1609.92 232.373 1606.4 232.971 1602.96 233.677C1604.44 224.927 1605.61 218.886 1605.61 218.886L1674.74 227.887Z" fill="black"/>
<path id="Vector_40" opacity="0.1" d="M1533.46 294.288C1532.53 298.958 1532.53 301.888 1532.53 301.888C1532.53 301.888 1487.11 320.889 1410.08 291.888C1333.05 262.888 1263.93 270.888 1263.93 270.888C1263.93 270.888 1264.74 268.568 1266.38 264.888C1271.83 259.237 1277.75 256.887 1277.75 256.887L1524.63 280.888L1533.46 294.288Z" fill="black"/>
<path id="Vector_41" d="M1701.36 188.836C1696.2 209.186 1694.49 234.837 1694.49 234.837C1649.06 252.837 1613.51 229.837 1613.51 229.837C1570.61 235.667 1550.45 254.677 1540.95 271.268C1535.86 280.242 1533.03 289.505 1532.53 298.838C1532.53 298.838 1520.52 303.839 1498.4 304.839C1477.49 305.729 1447.51 302.969 1410.08 288.838C1333.05 259.837 1263.93 267.838 1263.93 267.838C1263.93 267.838 1277.75 227.837 1309.35 215.836C1340.95 203.836 1364.65 188.836 1404.15 142.834C1443.66 96.8333 1524.63 107.834 1524.63 107.834C1524.63 107.834 1528.58 98.8333 1601.66 107.834C1619.46 110.196 1635.93 114.615 1649.79 120.744C1688.88 137.384 1707.84 163.195 1701.36 188.836Z" fill="white"/>
<path id="Vector_42" d="M1628.07 130.384C1627.97 131.714 1627.75 133.194 1627.39 134.844C1623.44 152.845 1619.49 150.845 1576.04 154.845C1549.02 157.335 1534.98 145.905 1528.23 136.904C1525.78 133.644 1523.94 130.276 1522.72 126.844L1617.52 118.844C1617.52 118.844 1628.88 117.234 1628.07 130.384Z" fill="#DB8B8B"/>
<path id="Vector_43" opacity="0.05" d="M1540.95 271.318C1535.86 280.292 1533.03 289.555 1532.53 298.888C1532.53 298.888 1520.52 303.889 1498.4 304.889C1497.78 304.251 1497.3 303.58 1496.98 302.888C1493.03 293.888 1463.41 277.888 1463.41 277.888C1443.66 268.888 1439.71 252.887 1439.71 252.887L1407.12 204.386L1396.25 199.886C1396.25 199.886 1441.68 181.885 1481.18 196.886C1520.68 211.886 1508.83 243.887 1508.83 243.887L1516.73 254.887C1524.93 258.387 1533.26 264.558 1540.95 271.318Z" fill="black"/>
<path id="Vector_44" d="M1402.18 198.886L1445.63 251.887C1445.63 251.887 1449.58 267.888 1469.33 276.888C1469.33 276.888 1498.96 292.888 1502.91 301.888C1506.86 310.889 1562.16 334.889 1562.16 334.889C1562.16 334.889 1613.51 358.89 1617.46 367.89C1617.46 367.89 1664.86 374.89 1658.94 388.891C1658.94 388.891 1694.49 370.89 1658.94 353.89C1623.38 336.889 1575.98 301.888 1575.98 301.888C1575.98 301.888 1548.33 264.888 1522.66 253.887L1514.76 242.887C1514.76 242.887 1526.61 210.886 1487.11 195.886C1447.61 180.885 1402.18 198.886 1402.18 198.886Z" fill="#DB8B8B"/>
<path id="Vector_45" opacity="0.1" d="M1427.86 577.896L1376.5 591.896L1360.7 585.896V581.896C1378.45 581.258 1395.69 578.624 1411.17 574.185C1415.91 572.825 1420.37 571.485 1423.94 570.305C1426.02 574.935 1427.86 577.896 1427.86 577.896Z" fill="black"/>
<path id="Vector_46" opacity="0.1" d="M1487.11 156.885L1514.76 211.886C1514.76 211.886 1429.83 218.886 1412.06 211.886C1394.28 204.886 1360.7 202.886 1360.7 202.886C1360.7 202.886 1396.25 150.885 1416.01 144.884C1435.76 138.884 1487.11 156.885 1487.11 156.885Z" fill="black"/>
<path id="Vector_47" d="M1487.11 154.885L1514.76 209.886C1514.76 209.886 1429.83 216.886 1412.06 209.886C1394.28 202.886 1360.7 200.886 1360.7 200.886C1360.7 200.886 1396.25 148.885 1416.01 142.884C1435.76 136.884 1487.11 154.885 1487.11 154.885Z" fill="white"/>
<path id="Vector_48" opacity="0.1" d="M1628.07 129.384C1622.53 133.25 1615.5 136.503 1607.39 138.941C1599.29 141.38 1590.28 142.953 1580.93 143.563C1571.58 144.174 1562.08 143.81 1553.01 142.493C1543.95 141.175 1535.52 138.933 1528.23 135.904C1525.78 132.644 1523.94 129.276 1522.72 125.844L1617.52 117.844C1617.52 117.844 1628.88 116.234 1628.07 129.384Z" fill="black"/>
<path id="Vector_49" d="M1641.16 107.884C1641.16 117.166 1633.88 126.069 1620.91 132.633C1607.95 139.197 1590.37 142.884 1572.03 142.884C1553.7 142.884 1536.12 139.197 1523.15 132.633C1510.19 126.069 1502.91 117.166 1502.91 107.884C1502.91 107.304 1502.91 106.724 1502.91 106.144C1503.36 96.8607 1511.08 88.0498 1524.37 81.649C1537.65 75.2482 1555.42 71.7819 1573.75 72.0127C1592.09 72.2434 1609.49 76.1523 1622.13 82.8794C1634.77 89.6065 1641.62 98.6007 1641.16 107.884V107.884Z" fill="#DB8B8B"/>
<path id="Vector_50" opacity="0.1" d="M1641.16 107.884C1641.17 111.109 1640.29 114.32 1638.55 117.424C1633.21 118.013 1627.64 117.755 1622.59 116.684C1615.21 115.214 1608.87 112.684 1601.78 110.864C1581.81 105.744 1558.05 106.754 1535.93 108.444C1524.95 109.284 1512.49 110.064 1503.85 106.524C1503.56 106.405 1503.27 106.278 1503.01 106.144C1503.46 96.8607 1511.18 88.0498 1524.47 81.649C1537.75 75.2482 1555.52 71.7819 1573.85 72.0127C1592.18 72.2434 1609.59 76.1523 1622.23 82.8794C1634.87 89.6065 1641.71 98.6007 1641.26 107.884H1641.16Z" fill="black"/>
<path id="Vector_51" opacity="0.05" d="M1318.24 215.386C1318.24 215.386 1369.59 222.386 1385.39 240.387C1401.19 258.387 1443.93 261.677 1443.93 261.677" fill="black"/>
<path id="Vector_52" d="M1511.79 611.396H1393.29V630.397H1511.79V611.396Z" fill="#6C63FF"/>
<path id="Vector_53" d="M1411.09 576.135C1421.69 573.135 1431 570.135 1431.81 568.895C1431.81 568.895 1458.57 583.196 1482.41 587.636C1490.42 589.135 1498.1 591.066 1505.3 593.396C1514.74 596.396 1528.21 599.926 1540.43 599.926C1540.43 599.926 1568.08 611.926 1514.76 613.927C1461.43 615.927 1337 608.926 1337 608.926L1344.9 583.926C1367.99 584.611 1390.97 581.906 1411.09 576.135Z" fill="#ABB1D1"/>
</g>
<g id="right-wheel">
<path id="Vector_54" d="M1959.8 496L1953.29 398.114L1953.15 397.904L1946.57 400.104L1916.28 484.902L1868.12 452.106L1944.85 398.704L1944.92 398.494L1945.36 398.344L1950.31 394.895L1869.88 351.591L1850.17 372.388L1853.29 391.885L1945.76 393.465V395.465L1851.54 393.845L1848 371.738L1874.96 343.292L1915.28 298.129L1916 299.999L1924.54 291L1956.34 296.469V295.259L1958.42 295.319V296.829L2005.65 304.948L1961.57 389.586L1955.15 394.055V394.555V395.115L2057 361.04L2044.91 452.236L1958.48 399.374L1955.44 397.734L2006.4 476.613L1959.8 496ZM1955.64 401.674L1961.73 493.04L2003.44 475.663L1955.64 401.674ZM1871.74 452.106L1915.26 481.732L1943.73 402.004L1871.74 452.106ZM1957.46 396.455L1959.64 397.624L2043.31 448.817L2054.55 363.959L1957.46 396.455ZM1950.07 389.256L1952.68 393.305L1953.14 392.985L1956.26 298.469L1925.3 293.13L1916.8 302.128L1950.07 389.256ZM1871.56 350.211L1949.5 392.205L1948.14 390.076L1915.26 303.818L1876.52 344.692L1871.56 350.211ZM1958.38 298.829L1955.25 391.505L1959.96 388.226L2002.56 306.418L1958.38 298.829Z" fill="#535461"/>
<path id="Vector_55" d="M1958.06 275C1947.06 274.988 1936.11 276.412 1925.5 279.233C1920.03 280.685 1914.68 282.51 1909.48 284.694C1881.77 296.261 1859.5 317.315 1846.98 343.781C1834.46 370.247 1832.58 400.246 1841.69 427.973C1850.81 455.7 1870.28 479.185 1896.34 493.886C1922.39 508.586 1953.18 513.457 1982.75 507.556C2012.32 501.654 2038.57 485.401 2056.42 461.938C2074.26 438.476 2082.44 409.473 2079.37 380.54C2076.29 351.607 2062.19 324.8 2039.78 305.305C2017.37 285.81 1988.25 275.012 1958.05 275H1958.06ZM1957.64 480.74C1936.62 480.732 1916.24 473.798 1899.87 461.09C1883.51 448.383 1872.15 430.665 1867.68 410.881C1863.21 391.097 1865.91 370.437 1875.31 352.331C1884.72 334.225 1900.28 319.764 1919.4 311.348C1924.26 309.204 1929.31 307.477 1934.49 306.187C1947.15 303.022 1960.36 302.491 1973.25 304.627C1986.14 306.763 1998.4 311.519 2009.24 318.577C2020.07 325.636 2029.21 334.835 2036.07 345.562C2042.92 356.29 2047.32 368.301 2048.98 380.794C2050.64 393.288 2049.51 405.979 2045.68 418.022C2041.85 430.065 2035.4 441.184 2026.76 450.639C2018.12 460.095 2007.49 467.669 1995.58 472.859C1983.66 478.049 1970.73 480.736 1957.65 480.74H1957.64Z" fill="#535461"/>
<path id="Vector_56" d="M1954.93 407.67C1962 407.67 1967.74 401.935 1967.74 394.86C1967.74 387.785 1962 382.05 1954.93 382.05C1947.86 382.05 1942.12 387.785 1942.12 394.86C1942.12 401.935 1947.86 407.67 1954.93 407.67Z" fill="#535461"/>
</g>
<g id="Hat">
<path id="Vector_57" d="M90.2319 390.928C94.4388 397.608 114.643 397.818 125.012 402.738C130.404 405.298 132.913 409.078 138.838 411.358C147.074 414.538 158.963 413.838 169.451 413.078C190.564 411.558 213.237 410.648 232.277 415.258C239.031 416.888 245.095 419.169 252.146 420.499C259.197 421.829 267.946 421.989 273.674 419.629C278.256 417.738 279.935 414.628 284.082 412.548C287.301 410.908 291.785 409.988 295.458 408.548C303.516 405.468 306.993 400.448 309.284 395.648C314.024 385.768 315.386 375.117 307.309 365.747C299.231 356.377 279.796 348.747 258.584 349.237C252.086 349.387 245.747 350.237 239.269 350.597C222.382 351.467 205.693 348.597 188.747 348.107C183.832 347.804 178.845 348.148 174.27 349.107C170.82 350.078 167.844 351.427 165.56 353.057C157.802 358.202 152.49 364.184 150.036 370.537C148.061 375.327 147.962 379.668 136.369 380.408C123.195 381.288 81.3245 376.797 90.2319 390.928Z" fill="#472727"/>
</g>
</g>
</svg>
